# xmcd
#
# Track frame offsets: 
#        150
#        19870
#        40192
#        59180
#        77400
#        96030
#        117125
#        133972
#        156010
#        180212
#        217572
#
# Disc length: 3099 seconds
#
# Revision: 1
# Processed by: cddbd v1.5.2PL0 Copyright (c) Steve Scherf et al.
# Submitted via: ExactAudioCopy v0.99pb4
#
DISCID=840c190b
DTITLE=Tommy Bankhead - Please Accept My Love
DYEAR=2002
DGENRE=Blues
TTITLE0=I'm Not Your Alley Cat
TTITLE1=Worried Life Blues
TTITLE2=Pleaase Accept My Love
TTITLE3=If You Call That Gone
TTITLE4=Everything Gonna Be Alright
TTITLE5=Santa's Blue Lover Blues
TTITLE6=Me and My Oxygen Tank
TTITLE7=Are You Ready
TTITLE8=Stoop Down
TTITLE9=Come To Me
TTITLE10=Tommy's Story
EXTD=
EXTT0=
EXTT1=
EXTT2=
EXTT3=
EXTT4=
EXTT5=
EXTT6=
EXTT7=
EXTT8=
EXTT9=
EXTT10=
PLAYORDER=
